<svg width="1000" height="610" viewBox="0 0 1000 610" xmlns="http://www.w3.org/2000/svg" role="img" aria-labelledby="title desc">
  <title id="title">Se Min Kong Codex activity</title>
  <desc id="desc">Automatically updated Codex token usage and activity streaks.</desc>
  <style>
    .name { font: 700 38px 'Segoe UI', Arial, sans-serif; fill: #f0f6fc; }
    .handle { font: 600 25px 'Segoe UI', Arial, sans-serif; fill: #8b949e; }
    .brand { font: 700 34px 'Segoe UI', Arial, sans-serif; fill: #c9d1d9; }
    .initials { font: 500 36px 'Segoe UI', Arial, sans-serif; fill: #f0f6fc; }
    .model { font: 500 17px 'Segoe UI', Arial, sans-serif; fill: #8b949e; }
    .stat-value { font: 600 36px 'Segoe UI', Arial, sans-serif; fill: #f0f6fc; }
    .stat-label { font: 500 24px 'Segoe UI', Arial, sans-serif; fill: #8b949e; }
    .updated { font: 500 13px 'Segoe UI', Arial, sans-serif; fill: #6e7681; }
  </style>
  <rect width="1000" height="610" rx="18" fill="#161b22"/>
  <circle cx="112" cy="82" r="52" fill="#8b9a9d"/>
  <text x="112" y="94" text-anchor="middle" class="initials">SK</text>
  <text x="210" y="72" class="name">Se Min Kong</text>
  <text x="210" y="108" class="handle">@SeMinKong</text>
  <g transform="translate(765 48)">
    <circle cx="28" cy="28" r="24" fill="none" stroke="#c9d1d9" stroke-width="6" stroke-dasharray="20 7"/>
    <path d="M21 20l9 8-9 8" fill="none" stroke="#c9d1d9" stroke-width="5" stroke-linecap="round" stroke-linejoin="round"/>
    <text x="66" y="40" class="brand">Codex</text>
  </g>
  <text x="64" y="143" class="model">Most used model: No activity yet</text>
  <rect x="64" y="165" width="20" height="20" rx="5" fill="#30363d" opacity="1"><title>2026-01-11: 0 tokens</title></rect><rect x="64" y="192" width="20" height="20" rx="5" fill="#30363d" opacity="1"><title>2026-01-12: 0 tokens</title></rect><rect x="64" y="219" width="20" height="20" rx="5" fill="#30363d" opacity="1"><title>2026-01-13: 0 tokens</title></rect><rect x="64" y="246" width="20" height="20" rx="5" fill="#30363d" opacity="1"><title>2026-01-14: 0 tokens</title></rect><rect x="64" y="273" width="20" height="20" rx="5" fill="#30363d" opacity="1"><title>2026-01-15: 0 tokens</title></rect><rect x="64" y="300" width="20" height="20" rx="5" fill="#30363d" opacity="1"><title>2026-01-16: 0 tokens</title></rect><rect x="64" y="327" width="20" height="20" rx="5" fill="#30363d" opacity="1"><title>2026-01-17: 0 tokens</title></rect><rect x="91" y="165" width="20" height="20" rx="5" fill="#30363d" opacity="1"><title>2026-01-18: 0 tokens</title></rect><rect x="91" y="192" width="20" height="20" rx="5" fill="#30363d" opacity="1"><title>2026-01-19: 0 tokens</title></rect><rect x="91" y="219" width="20" height="20" rx="5" fill="#30363d" opacity="1"><title>2026-01-20: 0 tokens</title></rect><rect x="91" y="246" width="20" height="20" rx="5" fill="#30363d" opacity="1"><title>2026-01-21: 0 tokens</title></rect><rect x="91" y="273" width="20" height="20" rx="5" fill="#30363d" opacity="1"><title>2026-01-22: 0 tokens</title></rect><rect x="91" y="300" width="20" height="20" rx="5" fill="#30363d" opacity="1"><title>2026-01-23: 0 tokens</title></rect><rect x="91" y="327" width="20" height="20" rx="5" fill="#30363d" opacity="1"><title>2026-01-24: 0 tokens</title></rect><rect x="118" y="165" width="20" height="20" rx="5" fill="#30363d" opacity="1"><title>2026-01-25: 0 tokens</title></rect><rect x="118" y="192" width="20" height="20" rx="5" fill="#30363d" opacity="1"><title>2026-01-26: 0 tokens</title></rect><rect x="118" y="219" width="20" height="20" rx="5" fill="#30363d" opacity="1"><title>2026-01-27: 0 tokens</title></rect><rect x="118" y="246" width="20" height="20" rx="5" fill="#30363d" opacity="1"><title>2026-01-28: 0 tokens</title></rect><rect x="118" y="273" width="20" height="20" rx="5" fill="#30363d" opacity="1"><title>2026-01-29: 0 tokens</title></rect><rect x="118" y="300" width="20" height="20" rx="5" fill="#30363d" opacity="1"><title>2026-01-30: 0 tokens</title></rect><rect x="118" y="327" width="20" height="20" rx="5" fill="#30363d" opacity="1"><title>2026-01-31: 0 tokens</title></rect><rect x="145" y="165" width="20" height="20" rx="5" fill="#30363d" opacity="1"><title>2026-02-01: 0 tokens</title></rect><rect x="145" y="192" width="20" height="20" rx="5" fill="#30363d" opacity="1"><title>2026-02-02: 0 tokens</title></rect><rect x="145" y="219" width="20" height="20" rx="5" fill="#30363d" opacity="1"><title>2026-02-03: 0 tokens</title></rect><rect x="145" y="246" width="20" height="20" rx="5" fill="#30363d" opacity="1"><title>2026-02-04: 0 tokens</title></rect><rect x="145" y="273" width="20" height="20" rx="5" fill="#30363d" opacity="1"><title>2026-02-05: 0 tokens</title></rect><rect x="145" y="300" width="20" height="20" rx="5" fill="#30363d" opacity="1"><title>2026-02-06: 0 tokens</title></rect><rect x="145" y="327" width="20" height="20" rx="5" fill="#30363d" opacity="1"><title>2026-02-07: 0 tokens</title></rect><rect x="172" y="165" width="20" height="20" rx="5" fill="#30363d" opacity="1"><title>2026-02-08: 0 tokens</title></rect><rect x="172" y="192" width="20" height="20" rx="5" fill="#30363d" opacity="1"><title>2026-02-09: 0 tokens</title></rect><rect x="172" y="219" width="20" height="20" rx="5" fill="#30363d" opacity="1"><title>2026-02-10: 0 tokens</title></rect><rect x="172" y="246" width="20" height="20" rx="5" fill="#30363d" opacity="1"><title>2026-02-11: 0 tokens</title></rect><rect x="172" y="273" width="20" height="20" rx="5" fill="#30363d" opacity="1"><title>2026-02-12: 0 tokens</title></rect><rect x="172" y="300" width="20" height="20" rx="5" fill="#30363d" opacity="1"><title>2026-02-13: 0 tokens</title></rect><rect x="172" y="327" width="20" height="20" rx="5" fill="#30363d" opacity="1"><title>2026-02-14: 0 tokens</title></rect><rect x="199" y="165" width="20" height="20" rx="5" fill="#30363d" opacity="1"><title>2026-02-15: 0 tokens</title></rect><rect x="199" y="192" width="20" height="20" rx="5" fill="#30363d" opacity="1"><title>2026-02-16: 0 tokens</title></rect><rect x="199" y="219" width="20" height="20" rx="5" fill="#30363d" opacity="1"><title>2026-02-17: 0 tokens</title></rect><rect x="199" y="246" width="20" height="20" rx="5" fill="#30363d" opacity="1"><title>2026-02-18: 0 tokens</title></rect><rect x="199" y="273" width="20" height="20" rx="5" fill="#30363d" opacity="1"><title>2026-02-19: 0 tokens</title></rect><rect x="199" y="300" width="20" height="20" rx="5" fill="#30363d" opacity="1"><title>2026-02-20: 0 tokens</title></rect><rect x="199" y="327" width="20" height="20" rx="5" fill="#30363d" opacity="1"><title>2026-02-21: 0 tokens</title></rect><rect x="226" y="165" width="20" height="20" rx="5" fill="#30363d" opacity="1"><title>2026-02-22: 0 tokens</title></rect><rect x="226" y="192" width="20" height="20" rx="5" fill="#30363d" opacity="1"><title>2026-02-23: 0 tokens</title></rect><rect x="226" y="219" width="20" height="20" rx="5" fill="#30363d" opacity="1"><title>2026-02-24: 0 tokens</title></rect><rect x="226" y="246" width="20" height="20" rx="5" fill="#30363d" opacity="1"><title>2026-02-25: 0 tokens</title></rect><rect x="226" y="273" width="20" height="20" rx="5" fill="#30363d" opacity="1"><title>2026-02-26: 0 tokens</title></rect><rect x="226" y="300" width="20" height="20" rx="5" fill="#30363d" opacity="1"><title>2026-02-27: 0 tokens</title></rect><rect x="226" y="327" width="20" height="20" rx="5" fill="#30363d" opacity="1"><title>2026-02-28: 0 tokens</title></rect><rect x="253" y="165" width="20" height="20" rx="5" fill="#30363d" opacity="1"><title>2026-03-01: 0 tokens</title></rect><rect x="253" y="192" width="20" height="20" rx="5" fill="#30363d" opacity="1"><title>2026-03-02: 0 tokens</title></rect><rect x="253" y="219" width="20" height="20" rx="5" fill="#30363d" opacity="1"><title>2026-03-03: 0 tokens</title></rect><rect x="253" y="246" width="20" height="20" rx="5" fill="#30363d" opacity="1"><title>2026-03-04: 0 tokens</title></rect><rect x="253" y="273" width="20" height="20" rx="5" fill="#30363d" opacity="1"><title>2026-03-05: 0 tokens</title></rect><rect x="253" y="300" width="20" height="20" rx="5" fill="#30363d" opacity="1"><title>2026-03-06: 0 tokens</title></rect><rect x="253" y="327" width="20" height="20" rx="5" fill="#30363d" opacity="1"><title>2026-03-07: 0 tokens</title></rect><rect x="280" y="165" width="20" height="20" rx="5" fill="#30363d" opacity="1"><title>2026-03-08: 0 tokens</title></rect><rect x="280" y="192" width="20" height="20" rx="5" fill="#30363d" opacity="1"><title>2026-03-09: 0 tokens</title></rect><rect x="280" y="219" width="20" height="20" rx="5" fill="#30363d" opacity="1"><title>2026-03-10: 0 tokens</title></rect><rect x="280" y="246" width="20" height="20" rx="5" fill="#30363d" opacity="1"><title>2026-03-11: 0 tokens</title></rect><rect x="280" y="273" width="20" height="20" rx="5" fill="#30363d" opacity="1"><title>2026-03-12: 0 tokens</title></rect><rect x="280" y="300" width="20" height="20" rx="5" fill="#30363d" opacity="1"><title>2026-03-13: 0 tokens</title></rect><rect x="280" y="327" width="20" height="20" rx="5" fill="#30363d" opacity="1"><title>2026-03-14: 0 tokens</title></rect><rect x="307" y="165" width="20" height="20" rx="5" fill="#30363d" opacity="1"><title>2026-03-15: 0 tokens</title></rect><rect x="307" y="192" width="20" height="20" rx="5" fill="#30363d" opacity="1"><title>2026-03-16: 0 tokens</title></rect><rect x="307" y="219" width="20" height="20" rx="5" fill="#30363d" opacity="1"><title>2026-03-17: 0 tokens</title></rect><rect x="307" y="246" width="20" height="20" rx="5" fill="#30363d" opacity="1"><title>2026-03-18: 0 tokens</title></rect><rect x="307" y="273" width="20" height="20" rx="5" fill="#30363d" opacity="1"><title>2026-03-19: 0 tokens</title></rect><rect x="307" y="300" width="20" height="20" rx="5" fill="#30363d" opacity="1"><title>2026-03-20: 0 tokens</title></rect><rect x="307" y="327" width="20" height="20" rx="5" fill="#30363d" opacity="1"><title>2026-03-21: 0 tokens</title></rect><rect x="334" y="165" width="20" height="20" rx="5" fill="#30363d" opacity="1"><title>2026-03-22: 0 tokens</title></rect><rect x="334" y="192" width="20" height="20" rx="5" fill="#30363d" opacity="1"><title>2026-03-23: 0 tokens</title></rect><rect x="334" y="219" width="20" height="20" rx="5" fill="#30363d" opacity="1"><title>2026-03-24: 0 tokens</title></rect><rect x="334" y="246" width="20" height="20" rx="5" fill="#30363d" opacity="1"><title>2026-03-25: 0 tokens</title></rect><rect x="334" y="273" width="20" height="20" rx="5" fill="#30363d" opacity="1"><title>2026-03-26: 0 tokens</title></rect><rect x="334" y="300" width="20" height="20" rx="5" fill="#30363d" opacity="1"><title>2026-03-27: 0 tokens</title></rect><rect x="334" y="327" width="20" height="20" rx="5" fill="#30363d" opacity="1"><title>2026-03-28: 0 tokens</title></rect><rect x="361" y="165" width="20" height="20" rx="5" fill="#30363d" opacity="1"><title>2026-03-29: 0 tokens</title></rect><rect x="361" y="192" width="20" height="20" rx="5" fill="#30363d" opacity="1"><title>2026-03-30: 0 tokens</title></rect><rect x="361" y="219" width="20" height="20" rx="5" fill="#30363d" opacity="1"><title>2026-03-31: 0 tokens</title></rect><rect x="361" y="246" width="20" height="20" rx="5" fill="#30363d" opacity="1"><title>2026-04-01: 0 tokens</title></rect><rect x="361" y="273" width="20" height="20" rx="5" fill="#30363d" opacity="1"><title>2026-04-02: 0 tokens</title></rect><rect x="361" y="300" width="20" height="20" rx="5" fill="#30363d" opacity="1"><title>2026-04-03: 0 tokens</title></rect><rect x="361" y="327" width="20" height="20" rx="5" fill="#30363d" opacity="1"><title>2026-04-04: 0 tokens</title></rect><rect x="388" y="165" width="20" height="20" rx="5" fill="#30363d" opacity="1"><title>2026-04-05: 0 tokens</title></rect><rect x="388" y="192" width="20" height="20" rx="5" fill="#30363d" opacity="1"><title>2026-04-06: 0 tokens</title></rect><rect x="388" y="219" width="20" height="20" rx="5" fill="#30363d" opacity="1"><title>2026-04-07: 0 tokens</title></rect><rect x="388" y="246" width="20" height="20" rx="5" fill="#30363d" opacity="1"><title>2026-04-08: 0 tokens</title></rect><rect x="388" y="273" width="20" height="20" rx="5" fill="#30363d" opacity="1"><title>2026-04-09: 0 tokens</title></rect><rect x="388" y="300" width="20" height="20" rx="5" fill="#30363d" opacity="1"><title>2026-04-10: 0 tokens</title></rect><rect x="388" y="327" width="20" height="20" rx="5" fill="#30363d" opacity="1"><title>2026-04-11: 0 tokens</title></rect><rect x="415" y="165" width="20" height="20" rx="5" fill="#30363d" opacity="1"><title>2026-04-12: 0 tokens</title></rect><rect x="415" y="192" width="20" height="20" rx="5" fill="#30363d" opacity="1"><title>2026-04-13: 0 tokens</title></rect><rect x="415" y="219" width="20" height="20" rx="5" fill="#30363d" opacity="1"><title>2026-04-14: 0 tokens</title></rect><rect x="415" y="246" width="20" height="20" rx="5" fill="#30363d" opacity="1"><title>2026-04-15: 0 tokens</title></rect><rect x="415" y="273" width="20" height="20" rx="5" fill="#30363d" opacity="1"><title>2026-04-16: 0 tokens</title></rect><rect x="415" y="300" width="20" height="20" rx="5" fill="#30363d" opacity="1"><title>2026-04-17: 0 tokens</title></rect><rect x="415" y="327" width="20" height="20" rx="5" fill="#30363d" opacity="1"><title>2026-04-18: 0 tokens</title></rect><rect x="442" y="165" width="20" height="20" rx="5" fill="#30363d" opacity="1"><title>2026-04-19: 0 tokens</title></rect><rect x="442" y="192" width="20" height="20" rx="5" fill="#30363d" opacity="1"><title>2026-04-20: 0 tokens</title></rect><rect x="442" y="219" width="20" height="20" rx="5" fill="#30363d" opacity="1"><title>2026-04-21: 0 tokens</title></rect><rect x="442" y="246" width="20" height="20" rx="5" fill="#30363d" opacity="1"><title>2026-04-22: 0 tokens</title></rect><rect x="442" y="273" width="20" height="20" rx="5" fill="#30363d" opacity="1"><title>2026-04-23: 0 tokens</title></rect><rect x="442" y="300" width="20" height="20" rx="5" fill="#30363d" opacity="1"><title>2026-04-24: 0 tokens</title></rect><rect x="442" y="327" width="20" height="20" rx="5" fill="#30363d" opacity="1"><title>2026-04-25: 0 tokens</title></rect><rect x="469" y="165" width="20" height="20" rx="5" fill="#30363d" opacity="1"><title>2026-04-26: 0 tokens</title></rect><rect x="469" y="192" width="20" height="20" rx="5" fill="#30363d" opacity="1"><title>2026-04-27: 0 tokens</title></rect><rect x="469" y="219" width="20" height="20" rx="5" fill="#30363d" opacity="1"><title>2026-04-28: 0 tokens</title></rect><rect x="469" y="246" width="20" height="20" rx="5" fill="#30363d" opacity="1"><title>2026-04-29: 0 tokens</title></rect><rect x="469" y="273" width="20" height="20" rx="5" fill="#30363d" opacity="1"><title>2026-04-30: 0 tokens</title></rect><rect x="469" y="300" width="20" height="20" rx="5" fill="#30363d" opacity="1"><title>2026-05-01: 0 tokens</title></rect><rect x="469" y="327" width="20" height="20" rx="5" fill="#30363d" opacity="1"><title>2026-05-02: 0 tokens</title></rect><rect x="496" y="165" width="20" height="20" rx="5" fill="#30363d" opacity="1"><title>2026-05-03: 0 tokens</title></rect><rect x="496" y="192" width="20" height="20" rx="5" fill="#30363d" opacity="1"><title>2026-05-04: 0 tokens</title></rect><rect x="496" y="219" width="20" height="20" rx="5" fill="#30363d" opacity="1"><title>2026-05-05: 0 tokens</title></rect><rect x="496" y="246" width="20" height="20" rx="5" fill="#30363d" opacity="1"><title>2026-05-06: 0 tokens</title></rect><rect x="496" y="273" width="20" height="20" rx="5" fill="#30363d" opacity="1"><title>2026-05-07: 0 tokens</title></rect><rect x="496" y="300" width="20" height="20" rx="5" fill="#30363d" opacity="1"><title>2026-05-08: 0 tokens</title></rect><rect x="496" y="327" width="20" height="20" rx="5" fill="#30363d" opacity="1"><title>2026-05-09: 0 tokens</title></rect><rect x="523" y="165" width="20" height="20" rx="5" fill="#30363d" opacity="1"><title>2026-05-10: 0 tokens</title></rect><rect x="523" y="192" width="20" height="20" rx="5" fill="#30363d" opacity="1"><title>2026-05-11: 0 tokens</title></rect><rect x="523" y="219" width="20" height="20" rx="5" fill="#30363d" opacity="1"><title>2026-05-12: 0 tokens</title></rect><rect x="523" y="246" width="20" height="20" rx="5" fill="#30363d" opacity="1"><title>2026-05-13: 0 tokens</title></rect><rect x="523" y="273" width="20" height="20" rx="5" fill="#30363d" opacity="1"><title>2026-05-14: 0 tokens</title></rect><rect x="523" y="300" width="20" height="20" rx="5" fill="#30363d" opacity="1"><title>2026-05-15: 0 tokens</title></rect><rect x="523" y="327" width="20" height="20" rx="5" fill="#30363d" opacity="1"><title>2026-05-16: 0 tokens</title></rect><rect x="550" y="165" width="20" height="20" rx="5" fill="#30363d" opacity="1"><title>2026-05-17: 0 tokens</title></rect><rect x="550" y="192" width="20" height="20" rx="5" fill="#30363d" opacity="1"><title>2026-05-18: 0 tokens</title></rect><rect x="550" y="219" width="20" height="20" rx="5" fill="#30363d" opacity="1"><title>2026-05-19: 0 tokens</title></rect><rect x="550" y="246" width="20" height="20" rx="5" fill="#30363d" opacity="1"><title>2026-05-20: 0 tokens</title></rect><rect x="550" y="273" width="20" height="20" rx="5" fill="#30363d" opacity="1"><title>2026-05-21: 0 tokens</title></rect><rect x="550" y="300" width="20" height="20" rx="5" fill="#30363d" opacity="1"><title>2026-05-22: 0 tokens</title></rect><rect x="550" y="327" width="20" height="20" rx="5" fill="#30363d" opacity="1"><title>2026-05-23: 0 tokens</title></rect><rect x="577" y="165" width="20" height="20" rx="5" fill="#30363d" opacity="1"><title>2026-05-24: 0 tokens</title></rect><rect x="577" y="192" width="20" height="20" rx="5" fill="#30363d" opacity="1"><title>2026-05-25: 0 tokens</title></rect><rect x="577" y="219" width="20" height="20" rx="5" fill="#30363d" opacity="1"><title>2026-05-26: 0 tokens</title></rect><rect x="577" y="246" width="20" height="20" rx="5" fill="#30363d" opacity="1"><title>2026-05-27: 0 tokens</title></rect><rect x="577" y="273" width="20" height="20" rx="5" fill="#30363d" opacity="1"><title>2026-05-28: 0 tokens</title></rect><rect x="577" y="300" width="20" height="20" rx="5" fill="#30363d" opacity="1"><title>2026-05-29: 0 tokens</title></rect><rect x="577" y="327" width="20" height="20" rx="5" fill="#30363d" opacity="1"><title>2026-05-30: 0 tokens</title></rect><rect x="604" y="165" width="20" height="20" rx="5" fill="#30363d" opacity="1"><title>2026-05-31: 0 tokens</title></rect><rect x="604" y="192" width="20" height="20" rx="5" fill="#30363d" opacity="1"><title>2026-06-01: 0 tokens</title></rect><rect x="604" y="219" width="20" height="20" rx="5" fill="#30363d" opacity="1"><title>2026-06-02: 0 tokens</title></rect><rect x="604" y="246" width="20" height="20" rx="5" fill="#30363d" opacity="1"><title>2026-06-03: 0 tokens</title></rect><rect x="604" y="273" width="20" height="20" rx="5" fill="#30363d" opacity="1"><title>2026-06-04: 0 tokens</title></rect><rect x="604" y="300" width="20" height="20" rx="5" fill="#30363d" opacity="1"><title>2026-06-05: 0 tokens</title></rect><rect x="604" y="327" width="20" height="20" rx="5" fill="#30363d" opacity="1"><title>2026-06-06: 0 tokens</title></rect><rect x="631" y="165" width="20" height="20" rx="5" fill="#30363d" opacity="1"><title>2026-06-07: 0 tokens</title></rect><rect x="631" y="192" width="20" height="20" rx="5" fill="#30363d" opacity="1"><title>2026-06-08: 0 tokens</title></rect><rect x="631" y="219" width="20" height="20" rx="5" fill="#30363d" opacity="1"><title>2026-06-09: 0 tokens</title></rect><rect x="631" y="246" width="20" height="20" rx="5" fill="#30363d" opacity="1"><title>2026-06-10: 0 tokens</title></rect><rect x="631" y="273" width="20" height="20" rx="5" fill="#30363d" opacity="1"><title>2026-06-11: 0 tokens</title></rect><rect x="631" y="300" width="20" height="20" rx="5" fill="#30363d" opacity="1"><title>2026-06-12: 0 tokens</title></rect><rect x="631" y="327" width="20" height="20" rx="5" fill="#30363d" opacity="1"><title>2026-06-13: 0 tokens</title></rect><rect x="658" y="165" width="20" height="20" rx="5" fill="#30363d" opacity="1"><title>2026-06-14: 0 tokens</title></rect><rect x="658" y="192" width="20" height="20" rx="5" fill="#30363d" opacity="1"><title>2026-06-15: 0 tokens</title></rect><rect x="658" y="219" width="20" height="20" rx="5" fill="#30363d" opacity="1"><title>2026-06-16: 0 tokens</title></rect><rect x="658" y="246" width="20" height="20" rx="5" fill="#30363d" opacity="1"><title>2026-06-17: 0 tokens</title></rect><rect x="658" y="273" width="20" height="20" rx="5" fill="#30363d" opacity="1"><title>2026-06-18: 0 tokens</title></rect><rect x="658" y="300" width="20" height="20" rx="5" fill="#30363d" opacity="1"><title>2026-06-19: 0 tokens</title></rect><rect x="658" y="327" width="20" height="20" rx="5" fill="#30363d" opacity="1"><title>2026-06-20: 0 tokens</title></rect><rect x="685" y="165" width="20" height="20" rx="5" fill="#30363d" opacity="1"><title>2026-06-21: 0 tokens</title></rect><rect x="685" y="192" width="20" height="20" rx="5" fill="#30363d" opacity="1"><title>2026-06-22: 0 tokens</title></rect><rect x="685" y="219" width="20" height="20" rx="5" fill="#30363d" opacity="1"><title>2026-06-23: 0 tokens</title></rect><rect x="685" y="246" width="20" height="20" rx="5" fill="#30363d" opacity="1"><title>2026-06-24: 0 tokens</title></rect><rect x="685" y="273" width="20" height="20" rx="5" fill="#30363d" opacity="1"><title>2026-06-25: 0 tokens</title></rect><rect x="685" y="300" width="20" height="20" rx="5" fill="#30363d" opacity="1"><title>2026-06-26: 0 tokens</title></rect><rect x="685" y="327" width="20" height="20" rx="5" fill="#30363d" opacity="1"><title>2026-06-27: 0 tokens</title></rect><rect x="712" y="165" width="20" height="20" rx="5" fill="#30363d" opacity="1"><title>2026-06-28: 0 tokens</title></rect><rect x="712" y="192" width="20" height="20" rx="5" fill="#30363d" opacity="1"><title>2026-06-29: 0 tokens</title></rect><rect x="712" y="219" width="20" height="20" rx="5" fill="#30363d" opacity="1"><title>2026-06-30: 0 tokens</title></rect><rect x="712" y="246" width="20" height="20" rx="5" fill="#30363d" opacity="1"><title>2026-07-01: 0 tokens</title></rect><rect x="712" y="273" width="20" height="20" rx="5" fill="#30363d" opacity="1"><title>2026-07-02: 0 tokens</title></rect><rect x="712" y="300" width="20" height="20" rx="5" fill="#30363d" opacity="1"><title>2026-07-03: 0 tokens</title></rect><rect x="712" y="327" width="20" height="20" rx="5" fill="#30363d" opacity="1"><title>2026-07-04: 0 tokens</title></rect><rect x="739" y="165" width="20" height="20" rx="5" fill="#30363d" opacity="1"><title>2026-07-05: 0 tokens</title></rect><rect x="739" y="192" width="20" height="20" rx="5" fill="#30363d" opacity="1"><title>2026-07-06: 0 tokens</title></rect><rect x="739" y="219" width="20" height="20" rx="5" fill="#30363d" opacity="1"><title>2026-07-07: 0 tokens</title></rect><rect x="739" y="246" width="20" height="20" rx="5" fill="#30363d" opacity="1"><title>2026-07-08: 0 tokens</title></rect><rect x="739" y="273" width="20" height="20" rx="5" fill="#30363d" opacity="1"><title>2026-07-09: 0 tokens</title></rect><rect x="739" y="300" width="20" height="20" rx="5" fill="#30363d" opacity="1"><title>2026-07-10: 0 tokens</title></rect><rect x="739" y="327" width="20" height="20" rx="5" fill="#30363d" opacity="1"><title>2026-07-11: 0 tokens</title></rect><rect x="766" y="165" width="20" height="20" rx="5" fill="#30363d" opacity="1"><title>2026-07-12: 0 tokens</title></rect><rect x="766" y="192" width="20" height="20" rx="5" fill="#30363d" opacity="1"><title>2026-07-13: 0 tokens</title></rect><rect x="766" y="219" width="20" height="20" rx="5" fill="#30363d" opacity="1"><title>2026-07-14: 0 tokens</title></rect><rect x="766" y="246" width="20" height="20" rx="5" fill="#30363d" opacity="1"><title>2026-07-15: 0 tokens</title></rect><rect x="766" y="273" width="20" height="20" rx="5" fill="#30363d" opacity="1"><title>2026-07-16: 0 tokens</title></rect><rect x="766" y="300" width="20" height="20" rx="5" fill="#30363d" opacity="1"><title>2026-07-17: 0 tokens</title></rect><rect x="766" y="327" width="20" height="20" rx="5" fill="#30363d" opacity="1"><title>2026-07-18: 0 tokens</title></rect><rect x="793" y="165" width="20" height="20" rx="5" fill="#30363d" opacity="1"><title>2026-07-19: 0 tokens</title></rect><rect x="793" y="192" width="20" height="20" rx="5" fill="#30363d" opacity="1"><title>2026-07-20: 0 tokens</title></rect><rect x="793" y="219" width="20" height="20" rx="5" fill="#30363d" opacity="1"><title>2026-07-21: 0 tokens</title></rect><rect x="793" y="246" width="20" height="20" rx="5" fill="#30363d" opacity="1"><title>2026-07-22: 0 tokens</title></rect><rect x="793" y="273" width="20" height="20" rx="5" fill="#30363d" opacity="1"><title>2026-07-23: 0 tokens</title></rect><rect x="793" y="300" width="20" height="20" rx="5" fill="#30363d" opacity="1"><title>2026-07-24: 0 tokens</title></rect><rect x="793" y="327" width="20" height="20" rx="5" fill="#30363d" opacity="1"><title>2026-07-25: 0 tokens</title></rect><rect x="820" y="165" width="20" height="20" rx="5" fill="#30363d" opacity="1"><title>2026-07-26: 0 tokens</title></rect><rect x="820" y="192" width="20" height="20" rx="5" fill="#30363d" opacity="1"><title>2026-07-27: 0 tokens</title></rect><rect x="820" y="219" width="20" height="20" rx="5" fill="#30363d" opacity="1"><title>2026-07-28: 0 tokens</title></rect><rect x="820" y="246" width="20" height="20" rx="5" fill="#30363d" opacity="1"><title>2026-07-29: 0 tokens</title></rect><rect x="820" y="273" width="20" height="20" rx="5" fill="#30363d" opacity="1"><title>2026-07-30: 0 tokens</title></rect><rect x="820" y="300" width="20" height="20" rx="5" fill="#30363d" opacity="1"><title>2026-07-31: 0 tokens</title></rect><rect x="820" y="327" width="20" height="20" rx="5" fill="#30363d" opacity="1"><title>2026-08-01: 0 tokens</title></rect><rect x="847" y="165" width="20" height="20" rx="5" fill="#30363d" opacity="1"><title>2026-08-02: 0 tokens</title></rect><rect x="847" y="192" width="20" height="20" rx="5" fill="#30363d" opacity="1"><title>2026-08-03: 0 tokens</title></rect><rect x="847" y="219" width="20" height="20" rx="5" fill="#30363d" opacity="1"><title>2026-08-04: 0 tokens</title></rect><rect x="847" y="246" width="20" height="20" rx="5" fill="#30363d" opacity="1"><title>2026-08-05: 0 tokens</title></rect><rect x="847" y="273" width="20" height="20" rx="5" fill="#30363d" opacity="1"><title>2026-08-06: 0 tokens</title></rect><rect x="847" y="300" width="20" height="20" rx="5" fill="#30363d" opacity="1"><title>2026-08-07: 0 tokens</title></rect><rect x="847" y="327" width="20" height="20" rx="5" fill="#30363d" opacity="1"><title>2026-08-08: 0 tokens</title></rect><rect x="874" y="165" width="20" height="20" rx="5" fill="#30363d" opacity="1"><title>2026-08-09: 0 tokens</title></rect><rect x="874" y="192" width="20" height="20" rx="5" fill="#30363d" opacity="1"><title>2026-08-10: 0 tokens</title></rect><rect x="874" y="219" width="20" height="20" rx="5" fill="#30363d" opacity="1"><title>2026-08-11: 0 tokens</title></rect><rect x="874" y="246" width="20" height="20" rx="5" fill="#30363d" opacity="1"><title>2026-08-12: 0 tokens</title></rect><rect x="874" y="273" width="20" height="20" rx="5" fill="#30363d" opacity="1"><title>2026-08-13: 0 tokens</title></rect><rect x="874" y="300" width="20" height="20" rx="5" fill="#30363d" opacity="1"><title>2026-08-14: 0 tokens</title></rect><rect x="874" y="327" width="20" height="20" rx="5" fill="#30363d" opacity="1"><title>2026-08-15: 0 tokens</title></rect><rect x="901" y="165" width="20" height="20" rx="5" fill="#30363d" opacity="1"><title>2026-08-16: 0 tokens</title></rect><rect x="901" y="192" width="20" height="20" rx="5" fill="#30363d" opacity="1"><title>2026-08-17: 0 tokens</title></rect><rect x="901" y="219" width="20" height="20" rx="5" fill="#30363d" opacity="1"><title>2026-08-18: 0 tokens</title></rect><rect x="901" y="246" width="20" height="20" rx="5" fill="#30363d" opacity="1"><title>2026-08-19: 0 tokens</title></rect><rect x="901" y="273" width="20" height="20" rx="5" fill="#30363d" opacity="0.35"><title>2026-08-20: 0 tokens</title></rect><rect x="901" y="300" width="20" height="20" rx="5" fill="#30363d" opacity="0.35"><title>2026-08-21: 0 tokens</title></rect><rect x="901" y="327" width="20" height="20" rx="5" fill="#30363d" opacity="0.35"><title>2026-08-22: 0 tokens</title></rect>
  <text x="125" y="500" text-anchor="middle" class="stat-value">0</text><text x="125" y="538" text-anchor="middle" class="stat-label">누적 토큰</text><line x1="250" y1="470" x2="250" y2="545" stroke="#30363d"/><text x="375" y="500" text-anchor="middle" class="stat-value">0</text><text x="375" y="538" text-anchor="middle" class="stat-label">최다 사용일</text><line x1="500" y1="470" x2="500" y2="545" stroke="#30363d"/><text x="625" y="500" text-anchor="middle" class="stat-value">0일</text><text x="625" y="538" text-anchor="middle" class="stat-label">현재 연속 기록</text><line x1="750" y1="470" x2="750" y2="545" stroke="#30363d"/><text x="875" y="500" text-anchor="middle" class="stat-value">0일</text><text x="875" y="538" text-anchor="middle" class="stat-label">최장 연속 기록</text>
  <text x="936" y="585" text-anchor="end" class="updated">Updated 2026-08-19T12:03:23+09:00</text>
</svg>
